<?xml version="1.0" encoding="UTF-8"?><svg id="a" xmlns="http://www.w3.org/2000/svg" viewBox="0 0 1024 1024"><path d="M0,597v-31c0-35.16,21.95-67,50.32-89.31,50.69-39.87,123.85-37.87,169.3,8.09l30.65,31,50.95,51.95,37.06,37.61,9.94-10.19,49.01-49.9,51.49-52.51,51.5-52.5,51.01-52,51.99-53,51.01-52,51.49-52.5,51.49-52.51,43.88-44.54c53.24-54.05,140.33-50.43,189.69,7.08,17.78,20.72,29.22,46.45,31.74,74.5,3.43,38.08-8.6,77.61-35.26,105.05l-30.56,31.45-50.96,51.97-50,51.01-50,51-50.99,52-50,51-50.5,51.5-50.5,51.5-50,51-50.5,51.5-49.98,50.95-25.04,25.4c-50.62,51.34-132.74,48.18-183.19-3.17l-47.32-48.17-48.99-50.02-49-50.01-48.96-49.94-12.38-12.78c-21.52-22.2-33.77-49.62-38.39-79.53Z"/></svg>