<?xml version="1.0" encoding="UTF-8"?><svg id="a" xmlns="http://www.w3.org/2000/svg" viewBox="0 0 512 512"><path d="M273,0c1.02.56,2.92.77,4.54.91,124.64,10.4,223.68,109.94,233.6,234.56.1,1.21.44,2.85.86,3.54v34c-.56,1.02-.77,2.92-.91,4.54-10.4,124.63-109.95,223.68-234.55,233.6-1.21.1-2.85.44-3.54.86h-34c-1.02-.56-2.92-.77-4.54-.91C109.84,500.69,10.78,401.14.86,276.54c-.1-1.21-.44-2.85-.86-3.54v-34C10.64,109.19,110.18,10.63,239,0h34ZM112.53,272.26l144.4-.05c8.43,0,13.75-6.66,15.06-14.56l.04-176.56c0-9.64-6.41-16.64-15.65-17-8.38-.33-16.36,6.47-16.36,16.03v160.11s-128.29.1-128.29.1c-9.21,0-15.83,8.15-15.66,16.06.19,8.86,6.49,15.87,16.46,15.87ZM132.5,110.53l-22.61,22.61,22.47,22.47,22.61-22.61-22.47-22.47ZM375.36,110.39l-21.97,21.97,22.11,22.11,21.97-21.97-22.11-22.11ZM448,240h-32v32h32v-32ZM371.14,341.89l-22.61,22.61,22.47,22.47,22.61-22.61-22.47-22.47ZM129.88,343.15l-22.24,22.24,22.13,22.13,22.24-22.24-22.13-22.13ZM272,416h-32v32h32v-32Z"/></svg>