<?xml version="1.0" encoding="UTF-8"?><svg id="a" xmlns="http://www.w3.org/2000/svg" viewBox="0 0 545 543"><polygon points="544.5 0 545 0 545 543 0 543 0 542.5 544.51 542.51 544.5 0"/><path d="M163.75,230.2h16.25s16,0,16,0h16s16,0,16,0h16s16,0,16,0h16s16,0,16,0h16s16,0,16,0h16s16.51-.08,16.51-.08c1.63-.17,3.15-.04,4.48.89l61.96-61.94,71.22,71.22-129.16,129.23h-71.14s-.13-71.2-.13-71.2l22.59-22.8H50.72s.01-45.35.01-45.35h17.27s16,.04,16,.04h16s16,0,16,0h16s16,0,16,0h15.75ZM352.12,336.57l96.26-96.3-25.51-25.32-96.37,96.38-.15,25.61,25.77-.37Z"/><rect x="50.6" y="322.48" width="223.42" height="48.4"/></svg>