<?xml version="1.0" encoding="UTF-8"?><svg id="a" xmlns="http://www.w3.org/2000/svg" viewBox="0 0 458.23 330.28"><path d="M400.7,325.35c-17.19,3.77-33.24,4.93-50.76,4.93H107.3c-17.72-.01-34.18-1.31-50.85-5.19-26.85-6.26-45.9-25.99-51.68-52.84C1.2,255.67,0,239.42,0,222.06l.03-114.82c0-17.84,1.21-34.66,5.35-51.56C11.85,29.23,31.45,10.49,58.02,4.81,74.61,1.26,90.78,0,108.3,0l242.64.02c17.99,0,34.74,1.3,51.64,5.4,26.49,6.42,45.17,26.09,50.89,52.63,3.58,16.58,4.77,32.83,4.77,50.19l-.03,114.82c0,17.84-1.19,34.65-5.35,51.56-6.42,26.09-25.5,44.89-52.16,50.74ZM392.91,294.38c15.61-3.13,26.17-13.83,29.35-28.93s3.99-29.04,3.99-44.39v-112.82c0-14.67-1.03-28.45-3.77-42.42-3.05-15.52-13.55-26.62-29.06-29.82-14.65-3.02-28.94-4.02-44.49-4.02H108.31c-14.86,0-28.5,1.1-42.52,3.81-15.54,3.01-26.6,13.57-29.82,29.06-3.05,14.61-3.99,29.04-3.99,44.39v112.82c0,14.67,1.03,28.45,3.78,42.42,3.05,15.52,13.55,26.62,29.06,29.82,14.65,3.02,28.94,4.01,44.49,4.01h240.63c14.84,0,28.44-1.01,42.98-3.93Z"/><path d="M337.46,266.25l-215.24.1c-9.51,0-15.91-8.15-15.65-16.37.29-9.1,7.36-15.61,16.92-15.61l212.05.03c8.88,0,15.3,6.6,16.03,14.35.69,7.38-4.3,17.49-14.11,17.5Z"/><circle cx="101.12" cy="101.15" r="21.26"/><circle cx="165.12" cy="101.15" r="21.26"/><circle cx="229.12" cy="101.15" r="21.26"/><circle cx="293.12" cy="101.15" r="21.26"/><circle cx="357.12" cy="101.15" r="21.26"/><circle cx="101.12" cy="165.15" r="21.26"/><circle cx="165.12" cy="165.15" r="21.26"/><circle cx="229.12" cy="165.15" r="21.26"/><circle cx="293.12" cy="165.15" r="21.26"/><circle cx="357.12" cy="165.15" r="21.26"/></svg>