<?xml version="1.0" encoding="UTF-8"?><svg id="a" xmlns="http://www.w3.org/2000/svg" viewBox="0 0 960.4 1024"><path d="M0,742v-13c.76-1.03,1.51-2.48,2.16-4.23,4.55-12.27,16.43-20.64,29.8-20.69l32.02-.13.09-32c.05-18.14,14.87-31.97,32.44-31.85,16.97.12,31.32,14.06,31.4,31.89l.14,31.98,32,.09c18.12.05,31.99,14.85,31.83,32.46s-13.94,31.41-31.97,31.42l-127.84.05c-15.01,0-27.29-10.12-30.9-24.1-.13-.49-1.08-1.83-1.18-1.89Z"/><path d="M0,358v-13c.76-1.03,1.51-2.48,2.16-4.23,4.55-12.27,16.43-20.64,29.8-20.69l32.02-.13.09-32c.05-18.14,14.87-31.97,32.44-31.85,16.97.12,31.32,14.06,31.4,31.89l.14,31.98,32,.09c18.12.05,31.99,14.85,31.83,32.46-.15,16.85-13.94,31.41-31.97,31.42l-127.84.05c-15.01,0-27.29-10.12-30.9-24.1-.13-.49-1.08-1.83-1.18-1.89Z"/><path d="M0,550v-13c.76-1.03,1.51-2.48,2.16-4.23,4.55-12.27,16.43-20.64,29.8-20.69l32.02-.13.09-32c.05-18.14,14.87-31.97,32.44-31.85s31.32,14.06,31.4,31.89l.14,31.98,32,.09c18.12.05,31.99,14.85,31.83,32.46-.15,16.85-13.94,31.41-31.97,31.42l-127.84.05c-15.01,0-27.29-10.12-30.9-24.1-.13-.49-1.08-1.83-1.18-1.89Z"/><path d="M845,0c67.31,8.84,115.23,63.18,115.25,132.4l.16,757.27c.01,68.31-45.82,126.6-116.1,133.63l-.31.7H179c-64.73,0-114.07-68.5-114.98-125.09l-.04-67.06,64.01.16.03,66.16c1.19,33.45,28.87,61.75,63.13,61.75l641.71.02c34.18,0,63.05-28.87,63.06-63.08l.15-767.67c0-34.97-27.5-65.1-63.26-65.11H191.17c-34.69-.01-62.41,28.85-63.16,62.78l-.02,65.15H63.99s.11-64.7.11-64.7c.11-67.36,50.86-119.3,115.9-127.31h665Z"/><path d="M213.98,637.2c64.03,43.03,46.95,49.83,125.43,46.84,16.26-.62,34.22-19.14,36.19-35.89,1.99-16.88,7.52-37.24,7.51-51.45l-.2-206.37-101.57-1.79c-2.86-24.7-2.64-49.57,1.17-80.7l181.66-.5-.83,328.43c-.07,27.15-10.24,65.6-24.13,85.8-45.49,66.14-174.14,54.45-225.36,9.42l.13-93.8Z"/><path d="M719.64,754.92l-84.8,1.53-.99-371.45-119.1-2.88c-1.12-26.93-.89-47.17,2.12-74.76h320.62s3.91,74.74,3.91,74.74l-121.44,2.8-.32,370.01Z"/></svg>