<?xml version="1.0" encoding="UTF-8"?><svg id="a" xmlns="http://www.w3.org/2000/svg" viewBox="0 0 1024 1024"><path d="M149.34,835.68c-14.25-31.33-21.27-69.12-21.27-103.9l-.02-376.55c0-13.31,1.39-25.21,3.1-38.02,13.41-100.29,77.89-156.48,178.04-165.29l.13,61.03c.04,18.3,14.93,32.49,32.18,32.23,18.18-.27,31.83-14.87,31.82-33.18l-.04-62.77h277.43s.18,64.77.18,64.77c.05,17.58,14.83,31.06,31.55,31.21,16.83.14,32.01-13.42,32.09-31.26l.27-62.1c-11.21-1.27-22.3-2.52-33.77-2.56l-30.29-.1.09-64.21c.02-17.75,14.77-31.42,31.69-31.52,17.22-.1,32.1,14.1,32.13,31.97l.12,66.53c70.95,6.42,131.08,36.66,160.9,103.35,13.11,27.83,20.26,68.93,20.26,99.9v376.6c0,21.57-2.75,41.93-7.33,62.54-12.13,54.53-43.49,98.85-94.56,122.65-33.48,15.6-72.59,21.69-109.59,21.69h-344.87c-19.2.01-37.28-1.72-55.96-5-59.45-10.42-108.89-42.19-134.27-98.01ZM682.4,501.23c18.74,0,32.32-15.19,32.08-32.55-.22-16.36-13.92-31.37-31.66-31.37h-341.55c-18.1.01-32,15.45-31.82,32.13.19,17.11,13.71,31.78,31.7,31.78h341.25ZM512.5,650.85l-170.42-.12c-18.16-.01-32.34,13.96-32.58,31.73-.23,16.69,13.56,32.18,31.61,32.18l171.53-.09c17.77,0,31.47-15.54,31.22-32.03-.25-16.5-13.25-31.66-31.36-31.68Z"/><path d="M349.44,149.18c-13.92-.02-26.58,1.02-40.19,2.63l.09-66.37c.02-17.57,14.43-31.61,31.19-31.94,17.27-.35,32.62,13.46,32.65,31.46l.09,64.26-23.83-.04Z"/></svg>