<?xml version="1.0" encoding="UTF-8"?><svg id="a" xmlns="http://www.w3.org/2000/svg" viewBox="0 0 1024 1024"><path d="M895.92,731.31c0,27.69-.9,53.55-3.31,80.03-1.65,18.15-4.75,35.22-10.74,52.23-10.76,30.54-34.26,52.72-65.02,62.43-16.38,5.17-32.41,7.67-49.71,9.59-31.38,2.47-62.17,3.07-93.83,3.08l-300.03.09-.03-852.86c4.78-.25,7.94-.65,12.05-.64l286.97.07,69.73,1.44c17.89.37,34.95,2.43,52.39,5.58,67.91,12.27,92.09,54.31,98.13,119.33,2.49,26.8,3.4,53.17,3.4,80.53v439.11ZM704.47,309.14c18.69,0,31.7-15.51,31.41-32.6-.28-16.72-14.05-31.22-32.06-31.22l-212.65-.02c-18.25,0-31.97,14.09-32.36,31.32-.37,16.38,12.43,32.45,30.27,32.45l215.38.07ZM703.45,394.77l-213.34.06c-18.3,0-31.68,15.42-31.33,32.57s14.14,31.31,32.35,31.3l213.6-.11c18.09,0,31.33-15.65,31.15-32.07-.2-17.41-13.83-31.75-32.43-31.75Z"/><path d="M128,309.26v64h-42.01c-18.24,0-32.4-13.97-32.55-31.79-.15-17.33,13.91-32.09,32-32.13l42.56-.09Z"/><path d="M128,714.74l42.86-.13c18.1-.05,31.95-15.01,31.71-32.07-.25-17.96-14.31-31.81-32.57-31.81h-42s0-106.73,0-106.73l42.02.02c18.08,0,32.27-14.08,32.51-31.59s-14.07-32.45-32.52-32.44h-42.01s0-106.73,0-106.73l45.06-.31c17.6-.12,30.28-16.65,29.45-33.02-.88-17.24-14.74-30.63-32.46-30.65h-42.05c.18-30.64.31-61.13,2.96-92.22,4.34-51.02,17.63-95.69,68.74-116.34,14.75-5.77,29.42-8.63,45.33-10.98,21.18-2.35,42.45-3.61,64.21-3.8v852.11c-22.07-.15-43.6-1.46-65.05-3.93-17.06-2.48-32.88-5.71-48.52-12.56-36.48-16.25-53.77-46.35-60.72-84.66-3.13-17.26-5.13-34.08-5.49-51.7l-1.46-70.45Z"/><path d="M128,650.74v64l-42.58-.08c-17.7-.03-31.49-14.11-31.94-31.22-.44-16.71,12.78-32.45,30.45-32.52l44.07-.18Z"/><path d="M128,480v64l-42.98-.12c-18.02-.05-31.71-14.91-31.55-32.08.16-17.07,13.75-31.67,31.45-31.71l43.07-.09Z"/></svg>