<?xml version="1.0" encoding="UTF-8"?><svg id="a" xmlns="http://www.w3.org/2000/svg" viewBox="0 0 1024 1024"><path d="M128.48,138.75l170.46.09c28.85.02,52.82,23.12,52.83,52.25l.07,171.8c.01,29.61-24.13,52.59-52.4,52.94-29.25.36-53.81-22.73-54.01-52.48l-.31-46.41c-99.4,135.73-80.74,324.52,43.24,438.55,71.96,66.18,168.75,96.58,265.28,84.5,149.48-18.71,268.24-137.81,286.48-287.32,11.74-96.24-18.73-192.58-84.59-264.26-62.61-68.15-150.68-106.99-243.44-107.13-30.68-.05-54.11-25.64-53.22-54.65.95-30.98,26.32-52.92,57.2-52.09,46.15,1.24,90.7,7.91,134.64,22.71,146.85,49.48,257.43,172.72,289.22,324.82,34.61,165.61-28.81,335.52-163.17,437.84-92.15,70.18-205.87,99.94-319.63,85.81-198.01-24.59-355.14-182.38-379.1-380.31-13.77-113.75,16.79-228.42,87.41-320.01l-38.43-.33c-29.68-.25-52.49-24.88-52.15-53.57.34-28.85,23.35-52.77,53.62-52.75Z"/></svg>