<?xml version="1.0" encoding="UTF-8"?><svg id="a" xmlns="http://www.w3.org/2000/svg" viewBox="0 0 426.29 426.36"><path d="M418.43,388.24c9.57,9.59,10.78,23.16,1.51,32.11-9.67,9.33-22.72,7.15-31.95-2.1l-112.75-113.02c-71.94,55.55-173.47,45.23-232.67-21.89C-16.79,216.04-13.74,113.71,49.65,50.22c63.59-63.68,165.32-67.3,233.2-8.02,67.03,58.54,78.45,160.41,22.52,232.79l113.07,113.25ZM298.45,170.54c0-70.65-57.27-127.92-127.92-127.92s-127.92,57.27-127.92,127.92,57.27,127.92,127.92,127.92,127.92-57.27,127.92-127.92Z"/></svg>