<?xml version="1.0" encoding="UTF-8"?><svg id="a" xmlns="http://www.w3.org/2000/svg" viewBox="0 0 512 512"><path d="M51,0c6.24,2.61,11.09,5.79,16.26,10.96l188.74,188.7L447.25,8.48c3.86-3.85,7.92-5.98,12.96-7.36l1.78-1.13h11c7.07,2.77,12.99,6.79,18.57,12.41l9.5,9.56c5.07,5.09,8.38,10.7,10.92,17.04v12c-2.61,6.24-5.79,11.08-10.96,16.26l-188.7,188.74,191.19,191.25c3.85,3.85,5.96,7.91,7.35,12.97l1.13,1.78v11c-2.77,7.07-6.79,12.99-12.41,18.57l-9.56,9.5c-5.09,5.07-10.7,8.38-17.04,10.92h-12c-6.21-2.65-11.09-5.79-16.26-10.96l-188.74-188.7-191.25,191.19c-3.86,3.86-7.92,5.96-12.98,7.35l-1.77,1.13h-11c-7.05-2.77-12.99-6.82-18.57-12.41l-9.52-9.55c-5.06-5.08-8.31-10.72-10.91-17.04v-12c2.65-6.21,5.79-11.09,10.96-16.26l188.7-188.74L8.96,65.23c-4.66-4.66-6.7-9.7-8.96-15.23v-11c2.73-6.77,6.51-12.66,11.92-18.06l8.51-8.51C26.06,6.8,31.91,2.75,39,0h12Z"/></svg>